<svg xmlns="http://www.w3.org/2000/svg" width="150" height="150" viewBox="0 0 150 150">
    <path d="M63.9 24.84c-2.4 0.81 -5.969 1.981 -7.919 2.61 -3.06 1.019 -3.631 1.319 -4.11 2.1 -0.719 1.169 -0.719 3.181 0 4.619 0.569 1.11 2.49 3.031 3 3.031 0.419 0 0.569 -0.69 0.419 -1.59 -0.181 -0.96 -0.21 -0.931 1.381 -0.36 0.69 0.24 3.031 0.781 5.219 1.231 7.681 1.5 8.64 2.91 4.59 6.6 -2.219 2.04 -3.6 2.76 -5.819 3.119 -2.069 0.36 -2.46 0.69 -1.681 1.531 0.931 1.05 2.1 1.469 3.96 1.469 1.5 0 2.19 -0.21 4.89 -1.531a91.837 91.837 0 0 1 5.04 -2.281c2.731 -1.019 3.45 -1.41 6.719 -3.75l2.91 -2.069 2.04 0.51c7.081 1.74 14.369 6.36 18.96 11.969 6.06 7.41 8.7 14.7 8.7 24.031 0 8.519 -2.49 15.84 -7.8 22.86 -5.16 6.869 -12.631 11.64 -21.75 13.89 -3.6 0.9 -10.56 1.11 -14.55 0.419 -12.45 -2.069 -22.56 -9.54 -28.11 -20.7 -6.9 -13.86 -4.59 -30.75 5.79 -42.481 2.91 -3.269 6.3 -5.91 10.019 -7.769 1.86 -0.931 1.919 -0.99 1.2 -1.26 -1.74 -0.69 -2.7 -1.26 -4.469 -2.819 -2.131 -1.86 -2.01 -1.86 -5.281 -0.269 -4.35 2.131 -9.51 7.11 -13.29 12.9 -3.66 5.55 -6.06 11.49 -7.44 18.331 -0.66 3.21 -0.75 11.581 -0.15 15.119 1.169 7.019 4.169 14.61 7.831 19.919 1.769 2.55 6.15 7.59 8.281 9.45 4.231 3.75 10.831 7.56 16.35 9.45 6.181 2.1 8.281 2.431 16.019 2.431 6.39 -0.031 7.14 -0.06 10.2 -0.81 9.869 -2.34 17.969 -6.931 24.931 -14.069 5.79 -6 9.69 -12.569 12 -20.219 1.619 -5.31 2.04 -8.31 2.069 -14.4 0 -6.21 -0.24 -8.219 -1.71 -13.5 -1.619 -5.731 -3.6 -9.84 -7.35 -15.06 -6.269 -8.79 -14.7 -15.119 -24.84 -18.66a405.612 405.612 0 0 1 -7.5 -2.731c-4.56 -1.71 -9.09 -2.7 -12.21 -2.7 -1.8 0.031 -2.969 0.269 -6.54 1.44m6.181 3.81c0.84 0.331 1.05 0.569 0.96 1.11 -0.269 1.86 -4.95 1.95 -6.06 0.15 -0.84 -1.41 2.669 -2.281 5.1 -1.26"/>
    <text
        x="75"
        y="75"
        fill="currentColor"
        text-anchor="middle"
        dominant-baseline="middle"
        font-size="32"
        font-weight="bold"
        font-family="Arial, sans-serif"
    >
    ZM
    </text>
</svg>
